<svg width="751" height="408" viewBox="0 0 751 408" fill="none" xmlns="http://www.w3.org/2000/svg">
    <g>
        <path d="M750.455 115.989L750.26 116.314L694.188 213.272L694.058 213.467L637.921 310.555L637.856 310.684L581.655 407.837L469.252 407.643H468.992L356.849 407.383L412.855 310.555L413.05 310.23L525.323 310.425L525.388 310.555L525.453 310.425L581.655 213.272L637.856 116.119H637.986L637.921 115.989L637.856 116.119L525.453 115.86H525.323L413.05 115.665H412.66L412.855 115.989L356.849 212.818H356.329L356.589 213.272L300.647 309.971H299.997L300.322 310.555L244.445 407.189H243.666L187.789 310.555L188.244 309.776L244.056 213.272L244.445 212.624L300.322 115.989L300.647 115.406L356.589 18.7069L356.849 18.2529L468.992 18.5123L469.122 18.7069L469.252 18.5123L581.655 18.7069L694.058 18.9015H694.318L750.455 115.989Z" fill="#000A37"></path>
        <path d="M18.502 18.7069H244.445L131.502 213.272L18.502 18.7069Z" fill="#000A37"></path>
        <animateTransform attributeName="transform" attributeType="XML" type="translate" dur="4s" values="0 0 ; -2 0; 0 0" repeatCount="indefinite"></animateTransform>
    </g>
    <g>
        <path d="M732.234 97.7688L732.039 98.093L675.967 195.051L675.837 195.246L619.701 292.334L619.636 292.464L563.434 389.616L451.031 389.422H450.771L338.628 389.163L394.635 292.334L394.829 292.01L507.103 292.204L507.168 292.334L507.233 292.204L563.434 195.051L619.636 97.8985H619.766L619.701 97.7688L619.636 97.8985L507.233 97.6391H507.103L394.829 97.4445H394.44L394.635 97.7688L338.628 194.597H338.108L338.368 195.051L282.426 291.75H281.777L282.101 292.334L226.225 388.968H225.445L169.568 292.334L170.023 291.556L225.835 195.051L226.225 194.403L282.101 97.7688L282.426 97.1851L338.368 0.486212L338.628 0.0322266L450.771 0.291647L450.901 0.486212L451.031 0.291647L563.434 0.486212L675.837 0.680777H676.097L732.234 97.7688Z" fill="#11BCC6"></path>
        <path d="M226.225 0.0322266L113.5 195.051L0.5 0.0322266H226.225Z" fill="#11BCC6"></path>
        <animateTransform attributeName="transform" attributeType="XML" type="translate" dur="4s" values="0 0 ; 20 0; 0 0" repeatCount="indefinite"></animateTransform>
    </g>
</svg>
